<?xml version="1.0" encoding="iso-8859-1"?>
<!-- Generator: Adobe Illustrator 19.0.0, SVG Export Plug-In . SVG Version: 6.00 Build 0)  -->
<svg xmlns="http://www.w3.org/2000/svg" xmlns:xlink="http://www.w3.org/1999/xlink" version="1.1" id="Capa_1" x="0px" y="0px" viewBox="0 0 403.901 403.901" style="enable-background:new 0 0 403.901 403.901;" xml:space="preserve" width="512px" height="512px">
<g>
	<g>
		<path d="M193.2,283.351c0.1-17.1-13.7-31-30.8-31.1c-17.1-0.1-31,13.7-31.1,30.8c0,0.1,0,0.2,0,0.4c0,5.7,1.6,11.3,4.6,16.2    c-8.9,14.5-4.4,33.6,10.2,42.5c4.8,2.9,10.4,4.5,16.1,4.5c17.1,0,30.9-13.8,31-30.9c0-5.7-1.6-11.3-4.6-16.2    C191.6,294.651,193.2,289.051,193.2,283.351z M173.1,283.351c0,3.3-1.5,6.3-4,8.4c-4.3,3.5-4.9,9.8-1.5,14.1    c0.4,0.5,0.9,1,1.5,1.5c2.5,2.1,4,5.2,4,8.4c-0.1,6-5,10.9-11,10.8c-6-0.1-10.8-4.9-10.8-10.8c0-3.3,1.5-6.4,4-8.4    c4.3-3.5,4.9-9.8,1.5-14.1c-0.4-0.6-0.9-1.1-1.5-1.5c-2.5-2-4-5.1-4-8.4c-0.1-6,4.8-11,10.8-11s11,4.8,11,10.8    C173.1,283.251,173.1,283.251,173.1,283.351z" fill="#FFFFFF"/>
	</g>
</g>
<g>
	<g>
		<path d="M393.6,15.951H10.4c-5.5,0-10.4,4.6-10.4,10.1v172c0,5.5,4.9,9.9,10.4,9.9H96v138.6c0,22.8,18.1,41.4,40.8,41.4h130.3    c22.8,0,40.8-18.6,40.8-41.4v-138.6h85.6c5.5,0,10.4-4.4,10.4-9.9v-172C404,20.551,399.1,15.951,393.6,15.951z M208,367.951h-71.2    c-11.7,0-20.8-9.6-20.8-21.4v-224.6h92V367.951z M244,367.951h-16v-246h16V367.951z M288,346.551c0,11.7-9.1,21.4-20.8,21.4H264    v-246h24V346.551z M298.4,101.951H105.6c-5.5,0-9.6,4.6-9.6,10.1v33.9H62v-68h280v68h-34v-33.9    C308,106.551,304,101.951,298.4,101.951z M384,187.951h-76v-22h43.9c5.5,0,10.1-4.1,10.1-9.6v-88.6c-0.1-5.5-4.6-9.9-10.1-9.8    H52.1c-5.5-0.1-10,4.2-10.1,9.7v88.7c0,5.5,4.6,9.6,10.1,9.6H96v22H20v-152h364V187.951z" fill="#FFFFFF"/>
	</g>
</g>
<g>
</g>
<g>
</g>
<g>
</g>
<g>
</g>
<g>
</g>
<g>
</g>
<g>
</g>
<g>
</g>
<g>
</g>
<g>
</g>
<g>
</g>
<g>
</g>
<g>
</g>
<g>
</g>
<g>
</g>
</svg>
