<?xml version="1.0" encoding="iso-8859-1"?>
<!DOCTYPE svg PUBLIC "-//W3C//DTD SVG 1.1//EN" "http://www.w3.org/Graphics/SVG/1.1/DTD/svg11.dtd">
<svg xmlns="http://www.w3.org/2000/svg" xmlns:xlink="http://www.w3.org/1999/xlink" version="1.1" viewBox="0 0 451.094 451.094" enable-background="new 0 0 451.094 451.094" width="512px" height="512px">
  <g>
    <path d="m396.21,219.521c-3.192-9.823-7.242-19.357-12.093-28.491v-1.223c0-87.541-71.22-158.76-158.76-158.76s-158.76,71.219-158.76,158.76v1.218c-4.85,9.141-8.902,18.68-12.093,28.506-30.159,0.63-54.504,25.343-54.504,55.651 0,30.703 24.979,55.682 55.682,55.682 0.074,0 0.149-0.004 0.224-0.004 8.923,22.049 23.591,40.648 43.649,55.022 31.19,22.351 74.69,34.166 125.798,34.166 51.112,0 94.615-11.814 125.806-34.166 20.062-14.375 34.731-32.977 43.654-55.029 0.2,0.002 0.4,0.011 0.6,0.011 30.703,0 55.682-24.979 55.682-55.682-0.001-30.435-24.55-55.231-54.885-55.661zm-32.3-37.337h-70.209c-0.734-38.111-6.964-73.808-17.728-101.221-3.721-9.476-7.908-17.688-12.47-24.574 55.676,15.942 97.145,65.866 100.407,125.795zm-138.553-131.137c10.883,0 22.846,13.916 31.999,37.226 9.886,25.173 15.624,58.28 16.342,93.911h-96.682c0.718-35.63 6.456-68.737 16.342-93.911 9.154-23.31 21.117-37.226 31.999-37.226zm-58.417,151.137h116.834 17.404c-19.306,17.676-46.768,28.13-75.822,28.13-29.043,0-56.502-10.454-75.815-28.13h17.399zm20.272-145.796c-4.562,6.886-8.749,15.098-12.47,24.574-10.765,27.413-16.994,63.11-17.728,101.221h-70.209c3.262-59.928 44.731-109.852 100.407-125.795zm-167.212,218.794c0-17.442 12.584-31.992 29.148-35.072-2.285,11.509-3.465,23.258-3.465,35.066 0,12.349 1.289,24.082 3.807,35.138-16.732-2.94-29.49-17.57-29.49-35.132zm319.509,94.443c-27.773,19.902-67.248,30.422-114.156,30.422-46.903,0-86.375-10.52-114.147-30.422-30.206-21.646-45.522-53.423-45.522-94.448 0-25.42 6.082-50.544 17.627-72.993h39.261c22.616,29.808 61.456,48.13 102.785,48.13 41.344,0 80.184-18.322 102.787-48.13h39.259c11.547,22.433 17.63,47.556 17.63,72.993-0.001,41.025-15.317,72.802-45.524,94.448zm61.7-59.239c2.528-11.077 3.823-22.834 3.823-35.209 0-11.835-1.185-23.608-3.477-35.136 16.756,2.921 29.539,17.562 29.539,35.142 0,17.7-12.959,32.424-29.885,35.203z" fill="#FFFFFF"/>
    <path d="m242.896,340.272c-4.69,4.69-10.919,7.273-17.539,7.273s-12.85-2.583-17.54-7.274c-3.906-3.904-10.236-3.904-14.143,0-3.905,3.905-3.905,10.237 0,14.143 8.468,8.468 19.72,13.131 31.683,13.131s23.214-4.664 31.682-13.132c3.905-3.905 3.905-10.237 0-14.142-3.907-3.905-10.239-3.904-14.143,0.001z" fill="#FFFFFF"/>
    <path d="m129.856,256.047c-5.522,0-10,4.477-10,10v31c0,5.523 4.478,10 10,10s10-4.477 10-10v-31c0-5.523-4.477-10-10-10z" fill="#FFFFFF"/>
    <path d="m320.856,256.047c-5.522,0-10,4.477-10,10v31c0,5.523 4.478,10 10,10s10-4.477 10-10v-31c0-5.523-4.477-10-10-10z" fill="#FFFFFF"/>
  </g>
</svg>
